<svg height="304pt" viewBox="0.00 0.00 242.00 304.00" width="242pt" xmlns="http://www.w3.org/2000/svg" xmlns:xlink="http://www.w3.org/1999/xlink">
<g class="graph" id="graph0" transform="scale(1 1) rotate(0) translate(4 300)">
<title>G</title>
<polygon fill="white" points="-4,4 -4,-300 238,-300 238,4 -4,4" stroke="none"/>
<!-- 1879610447800 -->
<g class="node" id="node1"><title>1879610447800</title>
<polygon fill="none" points="15.5,-249.5 15.5,-295.5 218.5,-295.5 218.5,-249.5 15.5,-249.5" stroke="black"/>
<text font-family="Times New Roman,serif" font-size="14.00" text-anchor="middle" x="54" y="-268.8">InputLayer</text>
<polyline fill="none" points="92.5,-249.5 92.5,-295.5 " stroke="black"/>
<text font-family="Times New Roman,serif" font-size="14.00" text-anchor="middle" x="120.5" y="-280.3">input:</text>
<polyline fill="none" points="92.5,-272.5 148.5,-272.5 " stroke="black"/>
<text font-family="Times New Roman,serif" font-size="14.00" text-anchor="middle" x="120.5" y="-257.3">output:</text>
<polyline fill="none" points="148.5,-249.5 148.5,-295.5 " stroke="black"/>
<text font-family="Times New Roman,serif" font-size="14.00" text-anchor="middle" x="183.5" y="-280.3">(None, 4)</text>
<polyline fill="none" points="148.5,-272.5 218.5,-272.5 " stroke="black"/>
<text font-family="Times New Roman,serif" font-size="14.00" text-anchor="middle" x="183.5" y="-257.3">(None, 4)</text>
</g>
<!-- 1879610447352 -->
<g class="node" id="node2"><title>1879610447352</title>
<polygon fill="none" points="0,-166.5 0,-212.5 234,-212.5 234,-166.5 0,-166.5" stroke="black"/>
<text font-family="Times New Roman,serif" font-size="14.00" text-anchor="middle" x="40" y="-185.8">Embedding</text>
<polyline fill="none" points="80,-166.5 80,-212.5 " stroke="black"/>
<text font-family="Times New Roman,serif" font-size="14.00" text-anchor="middle" x="108" y="-197.3">input:</text>
<polyline fill="none" points="80,-189.5 136,-189.5 " stroke="black"/>
<text font-family="Times New Roman,serif" font-size="14.00" text-anchor="middle" x="108" y="-174.3">output:</text>
<polyline fill="none" points="136,-166.5 136,-212.5 " stroke="black"/>
<text font-family="Times New Roman,serif" font-size="14.00" text-anchor="middle" x="185" y="-197.3">(None, 4)</text>
<polyline fill="none" points="136,-189.5 234,-189.5 " stroke="black"/>
<text font-family="Times New Roman,serif" font-size="14.00" text-anchor="middle" x="185" y="-174.3">(None, 4, 100)</text>
</g>
<!-- 1879610447800&#45;&gt;1879610447352 -->
<g class="edge" id="edge1"><title>1879610447800-&gt;1879610447352</title>
<path d="M117,-249.366C117,-241.152 117,-231.658 117,-222.725" fill="none" stroke="black"/>
<polygon fill="black" points="120.5,-222.607 117,-212.607 113.5,-222.607 120.5,-222.607" stroke="black"/>
</g>
<!-- 1879610447688 -->
<g class="node" id="node3"><title>1879610447688</title>
<polygon fill="none" points="9,-83.5 9,-129.5 225,-129.5 225,-83.5 9,-83.5" stroke="black"/>
<text font-family="Times New Roman,serif" font-size="14.00" text-anchor="middle" x="40" y="-102.8">Lambda</text>
<polyline fill="none" points="71,-83.5 71,-129.5 " stroke="black"/>
<text font-family="Times New Roman,serif" font-size="14.00" text-anchor="middle" x="99" y="-114.3">input:</text>
<polyline fill="none" points="71,-106.5 127,-106.5 " stroke="black"/>
<text font-family="Times New Roman,serif" font-size="14.00" text-anchor="middle" x="99" y="-91.3">output:</text>
<polyline fill="none" points="127,-83.5 127,-129.5 " stroke="black"/>
<text font-family="Times New Roman,serif" font-size="14.00" text-anchor="middle" x="176" y="-114.3">(None, 4, 100)</text>
<polyline fill="none" points="127,-106.5 225,-106.5 " stroke="black"/>
<text font-family="Times New Roman,serif" font-size="14.00" text-anchor="middle" x="176" y="-91.3">(None, 100)</text>
</g>
<!-- 1879610447352&#45;&gt;1879610447688 -->
<g class="edge" id="edge2"><title>1879610447352-&gt;1879610447688</title>
<path d="M117,-166.366C117,-158.152 117,-148.658 117,-139.725" fill="none" stroke="black"/>
<polygon fill="black" points="120.5,-139.607 117,-129.607 113.5,-139.607 120.5,-139.607" stroke="black"/>
</g>
<!-- 1879610448584 -->
<g class="node" id="node4"><title>1879610448584</title>
<polygon fill="none" points="15,-0.5 15,-46.5 219,-46.5 219,-0.5 15,-0.5" stroke="black"/>
<text font-family="Times New Roman,serif" font-size="14.00" text-anchor="middle" x="40.5" y="-19.8">Dense</text>
<polyline fill="none" points="66,-0.5 66,-46.5 " stroke="black"/>
<text font-family="Times New Roman,serif" font-size="14.00" text-anchor="middle" x="94" y="-31.3">input:</text>
<polyline fill="none" points="66,-23.5 122,-23.5 " stroke="black"/>
<text font-family="Times New Roman,serif" font-size="14.00" text-anchor="middle" x="94" y="-8.3">output:</text>
<polyline fill="none" points="122,-0.5 122,-46.5 " stroke="black"/>
<text font-family="Times New Roman,serif" font-size="14.00" text-anchor="middle" x="170.5" y="-31.3">(None, 100)</text>
<polyline fill="none" points="122,-23.5 219,-23.5 " stroke="black"/>
<text font-family="Times New Roman,serif" font-size="14.00" text-anchor="middle" x="170.5" y="-8.3">(None, 12425)</text>
</g>
<!-- 1879610447688&#45;&gt;1879610448584 -->
<g class="edge" id="edge3"><title>1879610447688-&gt;1879610448584</title>
<path d="M117,-83.3664C117,-75.1516 117,-65.6579 117,-56.7252" fill="none" stroke="black"/>
<polygon fill="black" points="120.5,-56.6068 117,-46.6068 113.5,-56.6069 120.5,-56.6068" stroke="black"/>
</g>
</g>
</svg>