<svg height="387pt" viewBox="0.00 0.00 494.00 387.00" width="494pt" xmlns="http://www.w3.org/2000/svg" xmlns:xlink="http://www.w3.org/1999/xlink">
<g class="graph" id="graph0" transform="scale(1 1) rotate(0) translate(4 383)">
<title>G</title>
<polygon fill="white" points="-4,4 -4,-383 490,-383 490,4 -4,4" stroke="none"/>
<!-- 1879585006088 -->
<g class="node" id="node1"><title>1879585006088</title>
<polygon fill="none" points="15.5,-332.5 15.5,-378.5 218.5,-378.5 218.5,-332.5 15.5,-332.5" stroke="black"/>
<text font-family="Times New Roman,serif" font-size="14.00" text-anchor="middle" x="54" y="-351.8">InputLayer</text>
<polyline fill="none" points="92.5,-332.5 92.5,-378.5 " stroke="black"/>
<text font-family="Times New Roman,serif" font-size="14.00" text-anchor="middle" x="120.5" y="-363.3">input:</text>
<polyline fill="none" points="92.5,-355.5 148.5,-355.5 " stroke="black"/>
<text font-family="Times New Roman,serif" font-size="14.00" text-anchor="middle" x="120.5" y="-340.3">output:</text>
<polyline fill="none" points="148.5,-332.5 148.5,-378.5 " stroke="black"/>
<text font-family="Times New Roman,serif" font-size="14.00" text-anchor="middle" x="183.5" y="-363.3">(None, 1)</text>
<polyline fill="none" points="148.5,-355.5 218.5,-355.5 " stroke="black"/>
<text font-family="Times New Roman,serif" font-size="14.00" text-anchor="middle" x="183.5" y="-340.3">(None, 1)</text>
</g>
<!-- 1879585005808 -->
<g class="node" id="node3"><title>1879585005808</title>
<polygon fill="none" points="0,-249.5 0,-295.5 234,-295.5 234,-249.5 0,-249.5" stroke="black"/>
<text font-family="Times New Roman,serif" font-size="14.00" text-anchor="middle" x="40" y="-268.8">Embedding</text>
<polyline fill="none" points="80,-249.5 80,-295.5 " stroke="black"/>
<text font-family="Times New Roman,serif" font-size="14.00" text-anchor="middle" x="108" y="-280.3">input:</text>
<polyline fill="none" points="80,-272.5 136,-272.5 " stroke="black"/>
<text font-family="Times New Roman,serif" font-size="14.00" text-anchor="middle" x="108" y="-257.3">output:</text>
<polyline fill="none" points="136,-249.5 136,-295.5 " stroke="black"/>
<text font-family="Times New Roman,serif" font-size="14.00" text-anchor="middle" x="185" y="-280.3">(None, 1)</text>
<polyline fill="none" points="136,-272.5 234,-272.5 " stroke="black"/>
<text font-family="Times New Roman,serif" font-size="14.00" text-anchor="middle" x="185" y="-257.3">(None, 1, 100)</text>
</g>
<!-- 1879585006088&#45;&gt;1879585005808 -->
<g class="edge" id="edge1"><title>1879585006088-&gt;1879585005808</title>
<path d="M117,-332.366C117,-324.152 117,-314.658 117,-305.725" fill="none" stroke="black"/>
<polygon fill="black" points="120.5,-305.607 117,-295.607 113.5,-305.607 120.5,-305.607" stroke="black"/>
</g>
<!-- 1879585007656 -->
<g class="node" id="node2"><title>1879585007656</title>
<polygon fill="none" points="267.5,-332.5 267.5,-378.5 470.5,-378.5 470.5,-332.5 267.5,-332.5" stroke="black"/>
<text font-family="Times New Roman,serif" font-size="14.00" text-anchor="middle" x="306" y="-351.8">InputLayer</text>
<polyline fill="none" points="344.5,-332.5 344.5,-378.5 " stroke="black"/>
<text font-family="Times New Roman,serif" font-size="14.00" text-anchor="middle" x="372.5" y="-363.3">input:</text>
<polyline fill="none" points="344.5,-355.5 400.5,-355.5 " stroke="black"/>
<text font-family="Times New Roman,serif" font-size="14.00" text-anchor="middle" x="372.5" y="-340.3">output:</text>
<polyline fill="none" points="400.5,-332.5 400.5,-378.5 " stroke="black"/>
<text font-family="Times New Roman,serif" font-size="14.00" text-anchor="middle" x="435.5" y="-363.3">(None, 1)</text>
<polyline fill="none" points="400.5,-355.5 470.5,-355.5 " stroke="black"/>
<text font-family="Times New Roman,serif" font-size="14.00" text-anchor="middle" x="435.5" y="-340.3">(None, 1)</text>
</g>
<!-- 1879644457168 -->
<g class="node" id="node4"><title>1879644457168</title>
<polygon fill="none" points="252,-249.5 252,-295.5 486,-295.5 486,-249.5 252,-249.5" stroke="black"/>
<text font-family="Times New Roman,serif" font-size="14.00" text-anchor="middle" x="292" y="-268.8">Embedding</text>
<polyline fill="none" points="332,-249.5 332,-295.5 " stroke="black"/>
<text font-family="Times New Roman,serif" font-size="14.00" text-anchor="middle" x="360" y="-280.3">input:</text>
<polyline fill="none" points="332,-272.5 388,-272.5 " stroke="black"/>
<text font-family="Times New Roman,serif" font-size="14.00" text-anchor="middle" x="360" y="-257.3">output:</text>
<polyline fill="none" points="388,-249.5 388,-295.5 " stroke="black"/>
<text font-family="Times New Roman,serif" font-size="14.00" text-anchor="middle" x="437" y="-280.3">(None, 1)</text>
<polyline fill="none" points="388,-272.5 486,-272.5 " stroke="black"/>
<text font-family="Times New Roman,serif" font-size="14.00" text-anchor="middle" x="437" y="-257.3">(None, 1, 100)</text>
</g>
<!-- 1879585007656&#45;&gt;1879644457168 -->
<g class="edge" id="edge2"><title>1879585007656-&gt;1879644457168</title>
<path d="M369,-332.366C369,-324.152 369,-314.658 369,-305.725" fill="none" stroke="black"/>
<polygon fill="black" points="372.5,-305.607 369,-295.607 365.5,-305.607 372.5,-305.607" stroke="black"/>
</g>
<!-- 1879585006312 -->
<g class="node" id="node5"><title>1879585006312</title>
<polygon fill="none" points="14.5,-166.5 14.5,-212.5 233.5,-212.5 233.5,-166.5 14.5,-166.5" stroke="black"/>
<text font-family="Times New Roman,serif" font-size="14.00" text-anchor="middle" x="47" y="-185.8">Reshape</text>
<polyline fill="none" points="79.5,-166.5 79.5,-212.5 " stroke="black"/>
<text font-family="Times New Roman,serif" font-size="14.00" text-anchor="middle" x="107.5" y="-197.3">input:</text>
<polyline fill="none" points="79.5,-189.5 135.5,-189.5 " stroke="black"/>
<text font-family="Times New Roman,serif" font-size="14.00" text-anchor="middle" x="107.5" y="-174.3">output:</text>
<polyline fill="none" points="135.5,-166.5 135.5,-212.5 " stroke="black"/>
<text font-family="Times New Roman,serif" font-size="14.00" text-anchor="middle" x="184.5" y="-197.3">(None, 1, 100)</text>
<polyline fill="none" points="135.5,-189.5 233.5,-189.5 " stroke="black"/>
<text font-family="Times New Roman,serif" font-size="14.00" text-anchor="middle" x="184.5" y="-174.3">(None, 100)</text>
</g>
<!-- 1879585005808&#45;&gt;1879585006312 -->
<g class="edge" id="edge3"><title>1879585005808-&gt;1879585006312</title>
<path d="M118.913,-249.366C119.623,-241.152 120.443,-231.658 121.215,-222.725" fill="none" stroke="black"/>
<polygon fill="black" points="124.715,-222.871 122.09,-212.607 117.741,-222.268 124.715,-222.871" stroke="black"/>
</g>
<!-- 1879585006200 -->
<g class="node" id="node6"><title>1879585006200</title>
<polygon fill="none" points="255.5,-166.5 255.5,-212.5 474.5,-212.5 474.5,-166.5 255.5,-166.5" stroke="black"/>
<text font-family="Times New Roman,serif" font-size="14.00" text-anchor="middle" x="288" y="-185.8">Reshape</text>
<polyline fill="none" points="320.5,-166.5 320.5,-212.5 " stroke="black"/>
<text font-family="Times New Roman,serif" font-size="14.00" text-anchor="middle" x="348.5" y="-197.3">input:</text>
<polyline fill="none" points="320.5,-189.5 376.5,-189.5 " stroke="black"/>
<text font-family="Times New Roman,serif" font-size="14.00" text-anchor="middle" x="348.5" y="-174.3">output:</text>
<polyline fill="none" points="376.5,-166.5 376.5,-212.5 " stroke="black"/>
<text font-family="Times New Roman,serif" font-size="14.00" text-anchor="middle" x="425.5" y="-197.3">(None, 1, 100)</text>
<polyline fill="none" points="376.5,-189.5 474.5,-189.5 " stroke="black"/>
<text font-family="Times New Roman,serif" font-size="14.00" text-anchor="middle" x="425.5" y="-174.3">(None, 100)</text>
</g>
<!-- 1879644457168&#45;&gt;1879585006200 -->
<g class="edge" id="edge4"><title>1879644457168-&gt;1879585006200</title>
<path d="M367.907,-249.366C367.501,-241.152 367.032,-231.658 366.591,-222.725" fill="none" stroke="black"/>
<polygon fill="black" points="370.081,-222.422 366.092,-212.607 363.089,-222.767 370.081,-222.422" stroke="black"/>
</g>
<!-- 1879585006928 -->
<g class="node" id="node7"><title>1879585006928</title>
<polygon fill="none" points="113.5,-83.5 113.5,-129.5 374.5,-129.5 374.5,-83.5 113.5,-83.5" stroke="black"/>
<text font-family="Times New Roman,serif" font-size="14.00" text-anchor="middle" x="132.5" y="-102.8">Dot</text>
<polyline fill="none" points="151.5,-83.5 151.5,-129.5 " stroke="black"/>
<text font-family="Times New Roman,serif" font-size="14.00" text-anchor="middle" x="179.5" y="-114.3">input:</text>
<polyline fill="none" points="151.5,-106.5 207.5,-106.5 " stroke="black"/>
<text font-family="Times New Roman,serif" font-size="14.00" text-anchor="middle" x="179.5" y="-91.3">output:</text>
<polyline fill="none" points="207.5,-83.5 207.5,-129.5 " stroke="black"/>
<text font-family="Times New Roman,serif" font-size="14.00" text-anchor="middle" x="291" y="-114.3">[(None, 100), (None, 100)]</text>
<polyline fill="none" points="207.5,-106.5 374.5,-106.5 " stroke="black"/>
<text font-family="Times New Roman,serif" font-size="14.00" text-anchor="middle" x="291" y="-91.3">(None, 1)</text>
</g>
<!-- 1879585006312&#45;&gt;1879585006928 -->
<g class="edge" id="edge5"><title>1879585006312-&gt;1879585006928</title>
<path d="M156.791,-166.366C170.945,-156.812 187.662,-145.528 202.654,-135.409" fill="none" stroke="black"/>
<polygon fill="black" points="204.919,-138.103 211.249,-129.607 201.002,-132.301 204.919,-138.103" stroke="black"/>
</g>
<!-- 1879585006200&#45;&gt;1879585006928 -->
<g class="edge" id="edge6"><title>1879585006200-&gt;1879585006928</title>
<path d="M331.936,-166.366C317.664,-156.812 300.807,-145.528 285.691,-135.409" fill="none" stroke="black"/>
<polygon fill="black" points="287.281,-132.261 277.024,-129.607 283.387,-138.078 287.281,-132.261" stroke="black"/>
</g>
<!-- 1879585008496 -->
<g class="node" id="node8"><title>1879585008496</title>
<polygon fill="none" points="155.5,-0.5 155.5,-46.5 332.5,-46.5 332.5,-0.5 155.5,-0.5" stroke="black"/>
<text font-family="Times New Roman,serif" font-size="14.00" text-anchor="middle" x="181" y="-19.8">Dense</text>
<polyline fill="none" points="206.5,-0.5 206.5,-46.5 " stroke="black"/>
<text font-family="Times New Roman,serif" font-size="14.00" text-anchor="middle" x="234.5" y="-31.3">input:</text>
<polyline fill="none" points="206.5,-23.5 262.5,-23.5 " stroke="black"/>
<text font-family="Times New Roman,serif" font-size="14.00" text-anchor="middle" x="234.5" y="-8.3">output:</text>
<polyline fill="none" points="262.5,-0.5 262.5,-46.5 " stroke="black"/>
<text font-family="Times New Roman,serif" font-size="14.00" text-anchor="middle" x="297.5" y="-31.3">(None, 1)</text>
<polyline fill="none" points="262.5,-23.5 332.5,-23.5 " stroke="black"/>
<text font-family="Times New Roman,serif" font-size="14.00" text-anchor="middle" x="297.5" y="-8.3">(None, 1)</text>
</g>
<!-- 1879585006928&#45;&gt;1879585008496 -->
<g class="edge" id="edge7"><title>1879585006928-&gt;1879585008496</title>
<path d="M244,-83.3664C244,-75.1516 244,-65.6579 244,-56.7252" fill="none" stroke="black"/>
<polygon fill="black" points="247.5,-56.6068 244,-46.6068 240.5,-56.6069 247.5,-56.6068" stroke="black"/>
</g>
</g>
</svg>